<svg xmlns="http://www.w3.org/2000/svg" width="109" height="19" fill="none"><path fill-rule="evenodd" d="M39.428 6.728C51.022 4.499 61.906 3.711 72.41 3.552 50.757 1.018 28.948 1.823 7.393 5.949 19.218 7.075 29 7.116 39.428 6.728zM5.475 18.225c-.101-.563.116-1.142.483-1.297 8.078-3.381 15.781-5.944 23.176-7.871-8.745-.006-17.712-.416-28.499-1.73C.285 7.285.012 6.848 0 6.312s.242-1 .59-1.078C26.898-.65 53.644-1.577 80.088 2.473c.362.056.63.527.622 1.072l15.866.41 11.744.342c.38.007.684.482.681 1.06s-.311 1.048-.69 1.048c-23.11 0-39.654.913-52.947 1.645l-15.816.783c-10.423 2.009-21.42 5.187-33.222 10.13a.502.502 0 0 1-.183.037c-.303 0-.581-.307-.666-.775z" fill="#000"/></svg>